<?xml version="1.0" standalone="no"?>
<!DOCTYPE svg PUBLIC "-//W3C//DTD SVG 20010904//EN"
 "http://www.w3.org/TR/2001/REC-SVG-20010904/DTD/svg10.dtd">
<svg version="1.0" xmlns="http://www.w3.org/2000/svg"
 width="435.000000pt" height="435.000000pt" viewBox="0 0 435.000000 435.000000"
 preserveAspectRatio="xMidYMid meet">
<metadata>
Created by potrace 1.14, written by Peter Selinger 2001-2017
</metadata>
<g transform="translate(0.000000,435.000000) scale(0.100000,-0.100000)"
fill="#000000" stroke="none">
<path d="M0 3190 c1 -1142 1 -1161 20 -1180 23 -23 25 -19 9 13 -11 21 -10 21
15 -2 14 -14 26 -20 26 -15 0 5 5 1 11 -10 9 -14 8 -20 -1 -26 -7 -4 -9 -13
-5 -19 5 -8 -2 -10 -22 -5 -37 9 -44 14 -38 25 4 5 2 9 -3 9 -14 0 -11 -113 2
-123 8 -6 7 -10 -1 -14 -10 -3 -13 -58 -13 -224 0 -202 1 -219 18 -220 14 0
14 -2 -3 -9 -11 -5 -14 -9 -7 -9 6 -1 12 -6 12 -12 0 -7 11 -22 25 -35 27 -25
31 -20 26 34 -1 16 4 22 19 22 20 0 27 -14 11 -24 -4 -3 -11 -19 -14 -36 -5
-21 -12 -30 -27 -30 -11 0 -20 -4 -20 -10 0 -5 7 -7 15 -4 8 4 15 1 15 -6 0
-10 3 -10 15 0 12 10 15 9 15 -8 0 -11 6 -19 12 -18 7 0 14 -3 15 -9 2 -13
-30 -6 -39 8 -5 8 -8 5 -9 -8 -1 -11 -2 -24 -4 -30 -1 -5 -3 -21 -5 -35 -2
-19 -4 -16 -10 15 l-7 40 -2 -40 c0 -22 -7 -64 -15 -93 -7 -29 -9 -55 -5 -58
5 -3 9 7 9 23 0 22 2 25 10 13 5 -8 7 -24 4 -34 -5 -15 -3 -18 10 -13 9 4 16
2 16 -3 0 -6 -9 -10 -19 -10 -19 0 -35 -25 -26 -40 3 -4 -2 -11 -11 -14 -12
-4 -15 -15 -12 -36 3 -17 1 -30 -3 -30 -7 0 -4 -40 6 -68 3 -7 0 -10 -6 -7
-12 8 -11 -335 1 -356 7 -10 11 -10 24 0 13 11 16 11 16 -1 0 -8 -11 -20 -24
-28 l-24 -12 -1 -214 -2 -214 1057 0 c1023 0 1057 1 1041 18 -29 32 -18 42 12
11 l29 -29 1106 0 1106 0 0 2175 0 2175 -2175 0 -2175 0 0 -1160z m1728 984
c34 -17 43 -28 15 -17 -16 6 -16 5 -5 -10 8 -9 22 -19 33 -22 11 -4 19 -15 19
-28 0 -20 0 -20 16 -1 15 19 15 18 11 -4 -4 -15 1 -26 14 -32 22 -13 26 -35 4
-26 -11 4 -15 -2 -14 -22 1 -17 3 -21 6 -9 4 15 7 14 25 -9 19 -24 26 -26 71
-21 27 4 65 16 85 28 25 14 46 19 68 16 19 -3 47 2 72 13 35 16 42 17 42 5 0
-8 -8 -15 -17 -15 -23 0 -113 -57 -113 -70 0 -15 17 -12 46 7 22 14 27 14 35
2 7 -11 9 -11 9 4 0 19 15 23 25 7 3 -5 1 -10 -6 -10 -7 0 -10 -2 -8 -5 3 -2
28 2 57 9 29 8 52 11 52 8 0 -3 5 -1 12 6 17 17 41 15 34 -3 -4 -12 4 -15 41
-15 38 0 44 2 34 14 -10 12 -8 13 10 9 18 -5 21 -3 16 10 -7 19 -8 19 50 22
46 3 67 -12 39 -27 -11 -6 -15 -16 -11 -29 4 -11 1 -27 -7 -37 -10 -12 -6 -11
14 3 15 11 28 26 28 33 0 7 5 10 10 7 12 -8 13 1 1 23 -6 12 -2 24 15 42 20
20 24 22 24 7 0 -9 -6 -17 -12 -17 -8 0 -9 -3 -3 -8 12 -8 13 -32 2 -49 -4 -6
-4 -19 0 -30 6 -15 5 -16 -9 -5 -14 11 -16 10 -11 -7 3 -11 11 -25 17 -30 9
-8 12 -1 12 27 0 21 5 36 11 35 6 -1 16 19 23 45 6 26 21 57 32 70 16 16 18
22 7 22 -8 0 9 14 38 30 52 30 105 40 100 19 -1 -6 4 -14 11 -16 8 -3 10 1 6
11 -4 11 -1 16 10 16 9 0 15 -6 13 -12 -1 -9 14 -13 51 -13 35 0 52 -4 52 -12
0 -7 5 -13 10 -13 6 0 10 7 10 16 0 12 4 14 13 7 6 -6 24 -13 40 -17 15 -3 27
-11 27 -17 0 -6 -4 -7 -10 -4 -5 3 -10 2 -10 -3 0 -12 25 -22 56 -22 21 0 24
-3 18 -26 -4 -17 -2 -29 7 -35 12 -8 12 -10 0 -18 -9 -6 -10 -11 -2 -15 6 -4
9 -12 6 -17 -3 -5 1 -6 9 -3 9 3 17 14 17 23 1 13 2 13 6 -2 3 -13 13 -18 33
-15 15 1 35 -4 44 -11 14 -12 16 -12 10 3 -4 12 0 16 15 16 18 0 20 -3 11 -19
-14 -27 -13 -36 4 -22 11 10 16 8 21 -8 7 -23 -4 -73 -15 -66 -10 6 -21 -21
-13 -29 14 -13 8 -55 -8 -59 -9 -2 -18 -14 -21 -25 -5 -16 -1 -20 16 -19 11 0
24 5 28 11 3 5 15 10 25 11 10 0 23 4 30 8 7 4 10 -2 9 -18 0 -14 -3 -25 -6
-25 -10 0 -5 -44 8 -67 14 -25 16 -36 4 -29 -4 2 -8 -4 -8 -15 0 -23 0 -23 33
-1 21 13 25 14 18 2 -5 -8 -10 -18 -10 -22 0 -4 -8 -17 -17 -28 -10 -11 -18
-23 -18 -27 0 -4 -10 -17 -22 -30 -12 -13 -16 -23 -10 -23 7 0 12 -4 12 -10 0
-5 -7 -10 -15 -10 -8 0 -15 -4 -15 -8 0 -4 -10 -8 -21 -9 -28 -2 -37 -12 -20
-22 20 -13 -15 -47 -56 -56 -19 -4 -33 -13 -33 -21 0 -10 5 -12 13 -8 8 5 8 2
-2 -9 -7 -9 -20 -17 -28 -17 -8 0 -12 -4 -8 -10 3 -5 -7 -16 -22 -24 -15 -8
-22 -15 -15 -16 7 0 10 -4 7 -10 -3 -6 5 -10 19 -10 14 0 28 -4 31 -10 3 -5 1
-10 -4 -10 -6 0 -11 -7 -11 -15 0 -8 15 -17 38 -21 20 -4 31 -9 25 -11 -15 -5
-17 -39 -3 -48 13 -8 1 -35 -15 -35 -8 0 -13 -8 -13 -17 0 -10 -7 -34 -16 -53
l-16 -35 6 52 c9 69 -8 112 -40 106 -32 -7 -52 -44 -37 -71 6 -11 11 -30 11
-41 0 -12 5 -21 10 -21 6 0 10 11 10 25 0 14 5 25 10 25 6 0 10 -18 10 -39 0
-22 5 -41 10 -43 7 -2 5 -19 -5 -47 -8 -25 -13 -54 -9 -65 6 -20 6 -20 -8 -2
-14 18 -16 17 -36 -16 -12 -20 -22 -40 -22 -45 0 -17 -36 -43 -63 -45 -15 -1
-27 -7 -27 -13 0 -6 -11 -34 -24 -61 -13 -27 -28 -65 -33 -84 -10 -34 -28 -59
-108 -145 -22 -24 -67 -78 -100 -121 -73 -94 -195 -218 -195 -198 0 3 -7 0
-17 -7 -14 -12 -16 -12 -11 1 6 18 -51 60 -81 60 -11 0 -23 5 -26 10 -3 6 -12
10 -18 10 -7 0 -6 -4 3 -11 13 -10 13 -10 0 -6 -16 5 -43 -17 -33 -27 4 -3 -9
-6 -28 -7 -33 0 -33 -1 -9 -10 14 -6 37 -8 51 -5 38 7 71 -4 64 -22 -5 -14 -3
-14 45 0 8 3 12 3 8 1 -4 -2 -4 -11 -1 -18 6 -17 -27 -76 -67 -120 -15 -16
-33 -46 -39 -65 -12 -37 -48 -80 -66 -80 -32 0 -53 -53 -99 -245 -25 -105 -68
-229 -87 -249 -9 -10 -31 35 -34 69 -3 32 -17 89 -25 100 -4 6 -16 55 -25 110
-10 55 -28 120 -41 145 -12 25 -25 59 -28 77 -6 27 -4 33 16 44 24 12 58 44
58 54 0 4 -9 3 -20 0 -24 -8 -69 24 -62 44 3 8 0 11 -6 7 -17 -10 -65 61 -64
96 1 34 10 48 38 53 11 2 21 4 23 4 2 1 -2 7 -8 14 -6 8 -8 16 -6 19 3 3 0 18
-7 32 -10 23 -9 29 2 36 29 18 -36 22 -76 5 -55 -23 -125 -47 -129 -43 -1 2
-12 34 -24 71 -16 51 -21 90 -20 158 1 82 -1 92 -20 105 -11 8 -21 20 -21 26
0 6 -7 16 -16 23 -10 6 -18 31 -21 61 -2 27 -12 66 -21 87 -13 31 -13 42 -4
58 11 17 9 24 -8 46 -24 31 -25 43 -5 43 9 0 18 8 22 18 3 9 15 27 26 39 l20
23 32 -98 c18 -53 37 -96 43 -95 6 2 14 -7 17 -20 3 -12 10 -31 15 -42 4 -11
11 -28 14 -37 3 -10 15 -18 27 -18 18 0 20 4 14 23 -18 58 -18 68 -1 61 13 -5
17 -18 15 -58 -1 -28 1 -72 5 -97 8 -44 6 -48 -22 -69 -37 -27 -35 -33 35
-128 56 -76 122 -132 155 -132 11 0 54 -12 96 -27 64 -22 94 -26 179 -26 111
0 105 -2 198 80 19 17 19 18 1 21 -10 2 -30 -5 -45 -15 -33 -24 -123 -30 -154
-10 -26 16 -87 30 -87 19 0 -5 5 -13 12 -20 20 -20 0 -14 -42 13 -22 14 -51
25 -65 25 -17 0 -25 6 -26 18 0 13 -2 14 -6 2 -11 -29 -24 -39 -41 -31 -59 28
-78 42 -89 63 -7 12 -13 19 -13 13 -1 -5 -7 4 -16 20 -8 17 -21 41 -29 55 -8
14 -15 39 -15 55 l1 30 30 -33 c16 -18 34 -30 38 -27 5 3 12 -1 14 -7 4 -10 8
-10 14 -2 4 7 34 17 66 24 31 7 57 17 57 21 0 17 74 31 200 39 106 6 142 5
169 -6 43 -18 52 -18 45 1 -4 8 -12 15 -20 15 -8 0 -14 4 -14 9 0 5 -61 7
-140 5 -100 -3 -140 -1 -140 7 0 8 -4 8 -13 1 -23 -19 -53 -4 -55 29 -1 16 2
29 6 29 14 0 43 -36 35 -44 -4 -4 0 -4 9 -1 12 5 14 16 11 48 -5 39 -3 44 21
55 15 7 40 12 55 12 16 0 39 8 52 18 22 19 22 19 -27 12 -27 -4 -60 -12 -74
-17 -17 -7 -44 -8 -83 -1 -69 12 -84 31 -66 81 9 27 9 38 -4 63 -15 29 -15 32
8 57 21 22 25 38 30 121 6 106 -5 146 -39 146 -17 0 -18 -2 -6 -10 10 -7 -19
-10 -92 -10 -66 0 -108 4 -108 10 0 6 6 10 13 11 6 0 1 5 -13 10 -34 14 -69 3
-79 -24 -8 -20 -10 -20 -16 -4 -5 11 -1 25 9 36 22 25 22 48 -1 30 -15 -13
-15 -12 -5 8 7 12 20 27 30 32 15 9 15 12 2 21 -13 9 -11 14 13 35 15 13 27
30 27 38 0 8 7 20 15 27 19 16 20 34 1 27 -10 -4 -13 6 -12 43 1 27 -1 47 -4
45 -3 -2 -14 3 -24 11 -16 11 -17 16 -6 29 26 31 -1 14 -35 -22 -19 -21 -35
-32 -35 -25 0 11 -3 11 -14 0 -8 -9 -16 -46 -19 -94 -6 -84 -21 -182 -28 -186
-2 -2 -19 -13 -36 -26 -30 -20 -33 -21 -33 -5 0 10 4 25 9 32 6 9 6 22 0 33
-6 10 -6 24 -2 31 10 17 11 77 1 105 -7 20 -13 23 -42 19 -41 -5 -58 -15 -50
-28 3 -5 10 -7 15 -4 5 4 9 1 9 -4 0 -17 -27 -13 -34 4 -3 9 -18 15 -39 15
-40 0 -97 18 -97 31 0 5 -9 9 -20 9 -13 0 -27 14 -40 39 -11 22 -24 42 -30 46
-12 8 -14 58 -1 53 8 -3 66 -68 108 -122 25 -32 90 -49 79 -21 -4 11 1 15 17
15 12 0 31 8 42 17 19 15 19 15 -10 9 l-30 -6 38 34 c32 29 37 38 28 53 -10
16 -10 16 -11 -5 0 -27 -18 -25 -42 5 -22 26 -23 37 -3 29 8 -3 15 -2 15 2 0
4 -14 13 -31 19 -26 10 -29 10 -19 -3 21 -24 0 -15 -31 14 -21 19 -33 44 -41
84 -7 32 -16 54 -22 51 -5 -4 -7 0 -3 9 3 9 3 19 -1 23 -4 4 -8 11 -8 16 -3
22 -5 23 -12 11 -6 -9 -15 -5 -33 14 -18 21 -20 26 -6 21 9 -4 17 -2 17 3 0 6
-4 10 -8 10 -5 0 -14 11 -19 23 -15 33 9 81 56 109 20 13 38 23 41 24 22 4 40
19 36 30 -7 17 35 29 67 20 12 -4 38 -10 57 -13 19 -3 37 -7 39 -9 2 -2 17 4
33 12 16 8 34 12 40 8 7 -4 8 -3 4 4 -4 7 -15 12 -25 12 -10 0 -25 7 -32 16
-7 9 -23 20 -36 25 -29 11 -30 29 0 29 12 1 51 11 87 24 80 29 108 30 148 10z
m1132 -19 c0 -8 -2 -15 -4 -15 -2 0 -6 7 -10 15 -3 8 -1 15 4 15 6 0 10 -7 10
-15z m-320 -100 c-7 -8 -20 -15 -29 -14 -11 0 -10 3 7 11 12 6 22 16 22 21 0
6 3 7 6 4 4 -4 1 -13 -6 -22z m-1045 5 c3 -5 1 -10 -4 -10 -6 0 -11 5 -11 10
0 6 2 10 4 10 3 0 8 -4 11 -10z m45 -4 c0 -2 -7 -7 -16 -10 -8 -3 -12 -2 -9 4
6 10 25 14 25 6z m723 -6 c7 0 7 -4 -2 -9 -16 -10 -41 -4 -41 11 0 6 7 7 16 4
9 -3 21 -6 27 -6z m-316 -36 c-3 -3 -12 -4 -19 -1 -8 3 -5 6 6 6 11 1 17 -2
13 -5z m-773 -466 c7 -28 -10 -21 -34 12 -26 37 -16 64 11 29 10 -13 20 -32
23 -41z m512 -75 c-2 -16 -5 -32 -6 -38 -1 -5 -5 1 -9 15 -4 14 -3 31 2 38 15
19 18 15 13 -15z m14 -69 c0 -2 -7 -4 -15 -4 -8 0 -15 4 -15 10 0 5 7 7 15 4
8 -4 15 -8 15 -10z m-180 -18 c0 -3 -4 -8 -10 -11 -5 -3 -10 -1 -10 4 0 6 5
11 10 11 6 0 10 -2 10 -4z m1840 -44 c0 -4 -9 -13 -21 -20 -19 -12 -19 -11 -9
8 10 19 30 28 30 12z m-1850 -52 c0 -11 -4 -20 -9 -20 -5 0 -7 9 -4 20 3 11 7
20 9 20 2 0 4 -9 4 -20z m66 -205 c-19 -29 -30 -26 -31 8 0 13 -6 21 -13 19
-8 -1 -11 2 -7 8 3 6 10 8 15 5 5 -3 12 0 15 6 5 8 12 6 23 -4 14 -14 13 -18
-2 -42z m194 45 c-20 -13 -43 -13 -35 0 3 6 16 10 28 10 18 0 19 -2 7 -10z
m40 -62 c0 -5 -4 -8 -10 -8 -5 0 -10 10 -10 23 0 18 2 19 10 7 5 -8 10 -18 10
-22z m103 -25 c-7 -2 -21 -2 -30 0 -10 3 -4 5 12 5 17 0 24 -2 18 -5z m-53 -7
c0 -8 -48 -12 -66 -5 -13 5 -7 8 24 8 23 1 42 -1 42 -3z m110 -2 c0 -3 -15
-20 -32 -38 -18 -18 -44 -44 -57 -59 l-24 -26 34 9 c19 6 35 10 36 10 2 0 3
-17 3 -38 0 -28 -8 -47 -30 -72 -16 -18 -32 -42 -36 -52 -3 -10 -10 -18 -15
-18 -5 0 -9 -6 -9 -13 0 -7 -10 -21 -21 -31 -16 -13 -24 -15 -33 -6 -12 12
-13 16 -15 55 0 14 -5 24 -10 23 -5 -2 -22 11 -39 29 -17 17 -40 34 -52 38
-17 6 -20 12 -16 33 5 20 4 23 -4 12 -11 -17 -11 -17 -14 33 -2 21 1 40 6 43
4 3 6 10 3 15 -4 5 -3 9 2 10 4 0 19 2 32 5 17 3 32 -5 56 -32 23 -25 35 -32
40 -23 5 8 4 10 -3 5 -21 -13 -13 22 10 44 16 15 35 20 73 20 30 0 59 6 71 15
19 15 44 20 44 9z m-378 -46 c-15 -15 -24 -6 -16 16 5 12 10 14 17 7 8 -8 8
-14 -1 -23z m-62 -17 c0 -16 -28 -20 -34 -5 -4 9 1 14 14 14 11 0 20 -4 20 -9z
m421 -203 c-8 -18 -10 -19 -10 -5 -1 10 -5 15 -11 12 -5 -3 -10 2 -10 13 0 27
10 33 26 17 10 -10 11 -20 5 -37z m1149 32 c0 -18 -2 -19 -20 -8 -11 7 -20 16
-20 20 0 5 9 8 20 8 13 0 20 -7 20 -20z m-1172 -149 c27 -14 56 -61 45 -72 -5
-5 -32 -11 -59 -13 -27 -2 -64 -8 -82 -14 -25 -8 -31 -8 -25 1 14 22 12 38 -5
45 -11 5 -17 19 -17 42 0 30 4 35 24 37 13 0 26 5 30 10 3 6 15 15 26 21 17 9
21 6 31 -18 7 -16 21 -33 32 -39z m-1892 -417 c-3 -9 -6 -20 -6 -25 0 -5 -4
-9 -9 -9 -4 0 -6 11 -3 25 2 14 9 25 14 25 6 0 7 -7 4 -16z m44 -464 c0 -5 -2
-10 -4 -10 -3 0 -8 5 -11 10 -3 6 -1 10 4 10 6 0 11 -4 11 -10z m-45 -130 c3
-5 1 -10 -4 -10 -6 0 -11 5 -11 10 0 6 2 10 4 10 3 0 8 -4 11 -10z m55 -184
c0 -8 3 -16 8 -19 4 -2 1 -2 -6 0 -8 1 -12 -3 -10 -9 3 -7 18 -16 34 -19 l29
-7 -31 -1 c-20 -1 -34 5 -38 14 -3 8 -12 15 -21 15 -8 0 -15 5 -15 11 0 6 9 8
22 4 17 -6 20 -4 15 9 -4 9 -2 16 3 16 6 0 10 -6 10 -14z m65 -26 c3 -5 2 -10
-4 -10 -5 0 -13 5 -16 10 -3 6 -2 10 4 10 5 0 13 -4 16 -10z m35 -80 c0 -5 -2
-10 -4 -10 -3 0 -8 5 -11 10 -3 6 -1 10 4 10 6 0 11 -4 11 -10z m-60 -35 c0
-8 -2 -15 -4 -15 -2 0 -6 7 -10 15 -3 8 -1 15 4 15 6 0 10 -7 10 -15z m40 5
c0 -5 -5 -10 -11 -10 -5 0 -7 5 -4 10 3 6 8 10 11 10 2 0 4 -4 4 -10z m-7 -39
c-3 -13 -11 -17 -24 -14 -10 3 -19 9 -19 14 0 5 6 6 14 3 8 -3 17 -1 21 5 10
17 14 13 8 -8z m37 -25 c0 -3 -4 -8 -10 -11 -5 -3 -10 -1 -10 4 0 6 5 11 10
11 6 0 10 -2 10 -4z m-62 -55 c3 -8 -1 -12 -9 -9 -7 2 -15 10 -17 17 -3 8 1
12 9 9 7 -2 15 -10 17 -17z m24 -27 c-9 -16 -10 -14 -9 8 1 15 6 23 11 18 4
-4 4 -16 -2 -26z m-95 -61 c-3 -10 -5 -4 -5 12 0 17 2 24 5 18 2 -7 2 -21 0
-30z m2590 -285 c-3 -7 -5 -2 -5 12 0 14 2 19 5 13 2 -7 2 -19 0 -25z m-2620
-50 c-3 -8 -6 -5 -6 6 -1 11 2 17 5 13 3 -3 4 -12 1 -19z m1261 -52 c20 -27
67 -49 124 -60 23 -4 39 -14 43 -25 7 -22 33 -32 95 -36 24 -1 46 -8 48 -14 2
-6 10 -11 18 -11 13 0 19 -23 15 -62 -1 -10 4 -18 11 -19 7 0 4 -4 -7 -8 -11
-5 -23 -4 -26 0 -8 13 -124 11 -124 -1 0 -4 -53 -11 -95 -13 -25 -1 -51 -6
-57 -10 -8 -5 -13 -3 -13 4 0 8 -19 10 -67 5 -58 -5 -77 -2 -125 18 -31 13
-59 19 -60 14 -2 -6 -15 -5 -31 1 -33 13 -87 15 -87 3 0 -4 18 -18 40 -32 22
-14 40 -28 40 -31 0 -4 33 -14 73 -23 74 -17 118 -12 155 17 7 6 48 8 100 4
48 -3 96 -2 107 2 25 10 55 -8 55 -32 0 -19 -42 -40 -77 -38 -13 0 -23 -3 -23
-8 0 -5 -12 -12 -27 -16 -16 -3 -35 -13 -44 -21 -25 -22 -101 -20 -151 4 -24
12 -63 22 -88 22 -67 1 -188 -8 -199 -14 -5 -3 -11 1 -14 8 -4 11 -20 14 -57
12 -76 -3 -101 38 -50 84 9 8 22 25 28 37 15 27 16 83 2 83 -14 0 -12 26 4 58
23 45 47 52 211 68 46 4 84 15 110 30 55 33 117 32 143 0z m-478 -47 c-30 -24
-65 -39 -88 -39 -13 1 -8 8 16 30 22 21 43 30 65 30 l32 0 -25 -21z m-787 -17
c-3 -12 -9 -22 -14 -22 -5 0 -3 11 3 25 13 30 20 28 11 -3z m24 -24 c-3 -8 -6
-5 -6 6 -1 11 2 17 5 13 3 -3 4 -12 1 -19z m746 -50 c4 -15 -32 -68 -46 -68
-12 0 -81 -69 -75 -76 3 -2 17 0 32 6 15 5 35 10 44 10 15 -1 15 -2 2 -13 -8
-7 -14 -22 -12 -34 2 -12 -6 -42 -18 -68 -11 -25 -18 -50 -15 -55 3 -5 1 -11
-4 -14 -15 -10 -18 26 -5 54 7 14 16 39 22 57 l10 32 -32 -13 c-30 -12 -31
-15 -30 -68 1 -46 9 -71 47 -142 25 -47 41 -86 35 -86 -6 0 -5 -6 3 -16 11
-13 9 -14 -15 -8 -14 3 -34 7 -44 8 -23 1 -37 25 -33 60 1 16 -3 33 -11 38
-10 8 -9 8 5 4 23 -7 21 7 -7 49 -19 28 -25 32 -28 18 -3 -10 -8 19 -12 65 -6
65 -5 89 7 115 8 17 19 49 22 70 5 24 11 34 15 27 6 -9 13 -4 26 16 10 16 23
32 29 36 17 13 83 9 88 -4z m-646 -94 c-3 -3 -12 -4 -19 -1 -8 3 -5 6 6 6 11
1 17 -2 13 -5z m-67 -14 c0 -5 -7 -10 -16 -10 -8 0 -12 5 -9 10 3 6 10 10 16
10 5 0 9 -4 9 -10z m1604 -16 c-7 -3 -10 -13 -8 -22 3 -11 -4 -21 -21 -29 -28
-12 -35 -6 -40 33 -2 22 1 24 39 23 22 0 36 -3 30 -5z m109 -32 c30 -26 11
-24 -29 4 -30 20 -33 25 -14 19 14 -4 33 -14 43 -23z m-810 -132 c31 -11 67
-20 80 -20 13 0 27 -3 31 -7 4 -4 19 -8 34 -9 15 0 33 -2 40 -2 20 -3 14 -36
-10 -51 -18 -11 -23 -11 -32 0 -13 16 -116 14 -116 -2 0 -5 -22 -9 -50 -9 -27
0 -50 5 -50 10 0 6 -13 10 -30 10 -16 0 -30 -4 -30 -10 0 -5 -4 -10 -10 -10
-5 0 -10 7 -10 16 0 8 -4 13 -9 10 -10 -7 -21 16 -21 44 0 17 28 33 75 43 38
9 51 7 108 -13z m1549 -20 c25 -26 29 -36 24 -62 -7 -36 -24 -60 -37 -52 -5 3
-2 16 7 29 18 28 8 57 -34 92 -23 19 -24 23 -9 23 10 0 32 -14 49 -30z m-1199
-7 c14 -16 14 -20 -3 -41 -31 -37 -70 -38 -109 -3 -30 27 -32 31 -14 31 11 0
34 7 49 15 38 19 57 19 77 -2z m587 -8 c24 -18 29 -25 16 -25 -26 0 -56 19
-56 35 0 19 0 19 40 -10z m-580 -74 c0 -13 -55 -51 -74 -51 -28 0 -17 27 17
44 36 18 57 20 57 7z m660 -1 c0 -5 -5 -10 -11 -10 -5 0 -7 5 -4 10 3 6 8 10
11 10 2 0 4 -4 4 -10z m-1002 -44 c22 -14 31 -27 28 -38 -3 -13 2 -18 15 -18
23 0 24 -7 4 -27 -18 -17 -96 -9 -92 10 1 6 -10 17 -25 24 -21 11 -28 21 -28
44 0 27 3 29 33 28 17 -1 47 -12 65 -23z m1255 -11 c20 -14 37 -30 37 -36 0
-5 -17 2 -37 16 -21 14 -43 25 -50 25 -7 0 -13 5 -13 10 0 17 24 11 63 -15z
m-1625 -114 c-14 -5 -31 15 -23 29 5 8 11 6 20 -7 9 -11 10 -19 3 -22z"/>
<path d="M2960 4096 c0 -2 7 -9 15 -16 9 -7 15 -8 15 -2 0 5 -7 12 -15 16 -8
3 -15 4 -15 2z"/>
<path d="M2638 3998 c-11 -19 -12 -31 -2 -68 7 -25 13 -36 14 -25 7 68 11 89
21 101 9 11 8 14 -4 14 -8 0 -21 -10 -29 -22z"/>
<path d="M1721 3984 c0 -11 3 -14 6 -6 3 7 2 16 -1 19 -3 4 -6 -2 -5 -13z"/>
<path d="M2731 3922 c-7 -13 -10 -29 -8 -36 3 -7 -6 -21 -19 -31 -18 -14 -22
-24 -18 -44 11 -42 33 -62 55 -48 13 8 15 13 6 19 -8 5 -4 8 11 8 12 0 22 4
22 10 0 5 12 12 28 16 53 12 62 15 62 26 0 6 -12 8 -30 5 -16 -4 -30 -2 -30 3
0 5 -13 7 -28 4 -23 -5 -30 -1 -42 21 -12 22 -12 28 -1 34 7 5 11 15 9 22 -3
10 -9 7 -17 -9z m64 -92 c-3 -5 -12 -10 -18 -10 -7 0 -6 4 3 10 19 12 23 12
15 0z"/>
<path d="M2615 3890 c-3 -5 -1 -10 4 -10 6 0 11 5 11 10 0 6 -2 10 -4 10 -3 0
-8 -4 -11 -10z"/>
<path d="M2640 3858 c0 -13 5 -30 10 -38 7 -11 10 -7 10 17 0 17 -4 35 -10 38
-6 3 -10 -4 -10 -17z"/>
<path d="M1757 3844 c6 -16 19 -18 27 -5 3 5 -3 11 -13 14 -14 3 -18 1 -14 -9z"/>
<path d="M3175 3800 c-3 -5 -1 -10 4 -10 6 0 11 5 11 10 0 6 -2 10 -4 10 -3 0
-8 -4 -11 -10z"/>
<path d="M2790 3699 c0 -5 5 -7 10 -4 6 3 10 8 10 11 0 2 -4 4 -10 4 -5 0 -10
-5 -10 -11z"/>
<path d="M1636 3651 c-4 -7 -5 -15 -2 -18 9 -9 19 4 14 18 -4 11 -6 11 -12 0z"/>
<path d="M2785 3620 c-3 -5 -1 -10 4 -10 6 0 11 5 11 10 0 6 -2 10 -4 10 -3 0
-8 -4 -11 -10z"/>
<path d="M2806 3604 c-16 -11 -17 -17 -8 -26 7 -7 12 -22 12 -34 0 -27 9 -34
31 -25 22 8 8 47 -21 56 -20 6 -21 7 -3 20 10 7 16 16 13 18 -3 3 -14 -1 -24
-9z"/>
<path d="M2835 3590 c-3 -5 -1 -10 4 -10 6 0 11 5 11 10 0 6 -2 10 -4 10 -3 0
-8 -4 -11 -10z"/>
<path d="M3290 3510 c0 -5 5 -10 11 -10 5 0 7 5 4 10 -3 6 -8 10 -11 10 -2 0
-4 -4 -4 -10z"/>
<path d="M3160 3499 c0 -5 5 -7 10 -4 6 3 10 8 10 11 0 2 -4 4 -10 4 -5 0 -10
-5 -10 -11z"/>
<path d="M1808 3453 c-10 -3 -18 -9 -18 -14 0 -10 7 -11 34 0 23 9 9 19 -16
14z"/>
<path d="M1805 3200 c-8 -13 5 -13 25 0 13 8 13 10 -2 10 -9 0 -20 -4 -23 -10z"/>
<path d="M2930 3190 c0 -6 -4 -8 -10 -5 -5 3 -10 2 -10 -3 0 -6 7 -13 16 -16
8 -3 13 -9 10 -14 -2 -4 8 -9 24 -10 16 -1 31 2 35 8 3 6 -3 10 -16 10 -18 0
-19 2 -9 15 8 9 8 15 2 15 -6 0 -17 3 -26 6 -9 3 -16 1 -16 -6z"/>
<path d="M2354 3181 c35 -13 -1 -23 -72 -21 -123 5 -167 1 -154 -12 7 -7 12
-19 12 -28 0 -21 41 -55 63 -52 9 2 17 -2 17 -7 0 -6 9 -11 20 -11 12 0 30 -9
42 -20 13 -12 36 -20 55 -20 45 0 41 8 -11 21 -33 8 -43 15 -39 26 3 8 9 10
12 5 8 -12 61 -25 61 -14 0 4 -5 13 -12 20 -9 9 -9 12 -1 12 7 0 15 -9 18 -20
5 -16 12 -19 28 -15 12 4 30 9 40 11 9 3 17 13 17 22 0 10 3 13 8 7 9 -14 73
-33 90 -27 14 4 7 22 -9 22 -6 0 -7 -5 -3 -12 4 -7 3 -8 -5 -4 -21 13 0 27 32
21 l32 -6 -28 22 c-20 15 -25 24 -17 29 18 11 3 30 -23 29 -21 0 -21 -1 -2
-10 18 -8 17 -8 -5 -6 -14 1 -24 7 -23 13 3 15 -44 36 -52 24 -4 -6 -14 -10
-23 -10 -11 0 -13 3 -5 8 6 4 -10 8 -35 8 -29 1 -40 -1 -28 -5z m114 -47 c28
-19 20 -37 -11 -24 -12 5 -35 11 -51 15 -23 5 -27 8 -15 16 21 13 52 11 77 -7z
m-43 -34 c3 -5 -1 -10 -10 -10 -9 0 -13 5 -10 10 3 6 8 10 10 10 2 0 7 -4 10
-10z"/>
<path d="M2790 3180 c0 -5 5 -10 10 -10 6 0 10 -7 10 -16 0 -9 8 -18 19 -21
10 -2 24 -16 31 -29 8 -13 15 -22 18 -20 2 3 17 -10 34 -27 27 -30 28 -30 12
-4 -13 22 -14 30 -4 42 11 14 15 14 31 -1 11 -10 19 -24 19 -32 0 -12 4 -12
20 3 31 28 24 43 -22 50 -24 4 -54 14 -68 23 -14 9 -27 17 -30 18 -34 7 -60
18 -60 25 0 5 -4 9 -10 9 -5 0 -10 -4 -10 -10z"/>
<path d="M2053 3145 c-10 -11 -9 -14 5 -13 9 0 31 -3 47 -7 l30 -7 -33 21
c-38 24 -34 24 -49 6z"/>
<path d="M2955 3027 c-16 -18 -16 -65 -1 -74 7 -4 19 -19 26 -32 l12 -23 19
28 c26 39 24 79 -3 98 -27 19 -39 20 -53 3z"/>
<path d="M2261 2987 c6 -14 22 -30 35 -36 35 -15 29 0 -11 32 -35 28 -35 28
-24 4z"/>
<path d="M3020 2855 c-7 -9 -8 -15 -2 -15 5 0 12 7 16 15 3 8 4 15 2 15 -2 0
-9 -7 -16 -15z"/>
<path d="M2254 2796 c6 -19 14 -32 18 -30 4 2 21 -9 38 -26 33 -32 89 -65 97
-56 3 3 -8 17 -23 31 -75 67 -132 115 -136 115 -3 0 0 -15 6 -34z"/>
<path d="M2862 2740 c-3 -54 11 -66 42 -34 20 19 21 34 2 34 -8 0 -17 11 -20
25 -10 40 -21 29 -24 -25z"/>
<path d="M1610 2550 c0 -5 5 -10 10 -10 6 0 10 5 10 10 0 6 -4 10 -10 10 -5 0
-10 -4 -10 -10z"/>
<path d="M2086 2422 c-3 -5 -19 -7 -36 -4 -17 2 -30 0 -30 -6 0 -6 -8 -8 -19
-5 -10 2 -25 -2 -33 -11 -15 -15 -58 -18 -58 -5 0 4 -9 9 -20 12 -11 3 -20 1
-20 -4 0 -14 43 -49 61 -49 10 0 24 -2 31 -5 8 -3 23 2 33 12 30 27 89 48 148
52 10 0 15 6 12 11 -7 12 -62 13 -69 2z"/>
<path d="M1975 2170 c3 -5 11 -10 16 -10 6 0 7 5 4 10 -3 6 -11 10 -16 10 -6
0 -7 -4 -4 -10z"/>
<path d="M2010 2098 c0 -9 5 -20 10 -23 13 -8 13 5 0 25 -8 13 -10 13 -10 -2z"/>
<path d="M2363 2061 c-18 -9 -33 -19 -33 -23 0 -8 44 9 75 29 28 18 -2 14 -42
-6z"/>
<path d="M2085 1880 c3 -5 11 -10 16 -10 6 0 7 5 4 10 -3 6 -11 10 -16 10 -6
0 -7 -4 -4 -10z"/>
<path d="M1260 620 c0 -5 12 -10 28 -9 24 0 25 1 7 9 -27 12 -35 12 -35 0z"/>
<path d="M675 120 c3 -5 11 -10 16 -10 6 0 7 5 4 10 -3 6 -11 10 -16 10 -6 0
-7 -4 -4 -10z"/>
<path d="M45 1970 c-3 -5 -1 -10 4 -10 6 0 11 5 11 10 0 6 -2 10 -4 10 -3 0
-8 -4 -11 -10z"/>
<path d="M1 1344 c0 -11 3 -14 6 -6 3 7 2 16 -1 19 -3 4 -6 -2 -5 -13z"/>
<path d="M10 1259 c0 -5 5 -7 10 -4 6 3 10 8 10 11 0 2 -4 4 -10 4 -5 0 -10
-5 -10 -11z"/>
</g>
</svg>
